<svg xmlns="http://www.w3.org/2000/svg" viewBox="0 0 1280 640" width="1280" height="640">
<defs>
  <linearGradient id="bg" x1="0%" y1="0%" x2="100%" y2="100%">
    <stop offset="0%" stop-color="#060809"/><stop offset="100%" stop-color="#0E0C05"/>
  </linearGradient>
  <linearGradient id="beam" x1="0%" y1="100%" x2="0%" y2="0%">
    <stop offset="0%" stop-color="#EF9F27" stop-opacity="0.5"/>
    <stop offset="100%" stop-color="#FCDE5A" stop-opacity="0.0"/>
  </linearGradient>
  <linearGradient id="blk" x1="0%" y1="0%" x2="0%" y2="100%">
    <stop offset="0%" stop-color="#1E1608"/><stop offset="100%" stop-color="#120F04"/>
  </linearGradient>
  <filter id="glow"><feGaussianBlur stdDeviation="3" result="b"/>
    <feMerge><feMergeNode in="b"/><feMergeNode in="SourceGraphic"/></feMerge></filter>
  <filter id="sg"><feGaussianBlur stdDeviation="8" result="b"/>
    <feMerge><feMergeNode in="b"/><feMergeNode in="SourceGraphic"/></feMerge></filter>
</defs>
<rect width="1280" height="640" fill="url(#bg)"/>
<g stroke="#EF9F27" stroke-width="0.2" stroke-opacity="0.07">
  <line x1="0" y1="160" x2="1280" y2="160"/><line x1="0" y1="320" x2="1280" y2="320"/>
  <line x1="0" y1="480" x2="1280" y2="480"/><line x1="320" y1="0" x2="320" y2="640"/>
  <line x1="640" y1="0" x2="640" y2="640"/><line x1="960" y1="0" x2="960" y2="640"/>
</g>
<polygon points="959,120 950,540 968,540" fill="url(#beam)"/>
<rect x="760" y="480" width="400" height="34" rx="3" fill="url(#blk)" stroke="#EF9F27" stroke-width="1.2"/>
<line x1="814" y1="480" x2="814" y2="514" stroke="#EF9F27" stroke-width="1" stroke-opacity="0.35"/>
<line x1="868" y1="480" x2="868" y2="514" stroke="#EF9F27" stroke-width="1" stroke-opacity="0.35"/>
<line x1="922" y1="480" x2="922" y2="514" stroke="#EF9F27" stroke-width="1" stroke-opacity="0.35"/>
<line x1="976" y1="480" x2="976" y2="514" stroke="#EF9F27" stroke-width="1" stroke-opacity="0.35"/>
<line x1="1030" y1="480" x2="1030" y2="514" stroke="#EF9F27" stroke-width="1" stroke-opacity="0.35"/>
<line x1="1084" y1="480" x2="1084" y2="514" stroke="#EF9F27" stroke-width="1" stroke-opacity="0.35"/>
<rect x="793" y="434" width="334" height="34" rx="3" fill="url(#blk)" stroke="#EF9F27" stroke-width="1.3"/>
<line x1="853" y1="434" x2="853" y2="468" stroke="#EF9F27" stroke-width="1" stroke-opacity="0.4"/>
<line x1="920" y1="434" x2="920" y2="468" stroke="#EF9F27" stroke-width="1" stroke-opacity="0.4"/>
<line x1="987" y1="434" x2="987" y2="468" stroke="#EF9F27" stroke-width="1" stroke-opacity="0.4"/>
<line x1="1054" y1="434" x2="1054" y2="468" stroke="#EF9F27" stroke-width="1" stroke-opacity="0.4"/>
<rect x="826" y="388" width="268" height="34" rx="3" fill="url(#blk)" stroke="#EF9F27" stroke-width="1.4"/>
<line x1="893" y1="388" x2="893" y2="422" stroke="#EF9F27" stroke-width="1" stroke-opacity="0.5"/>
<line x1="959" y1="388" x2="959" y2="422" stroke="#EF9F27" stroke-width="1" stroke-opacity="0.5"/>
<line x1="1025" y1="388" x2="1025" y2="422" stroke="#EF9F27" stroke-width="1" stroke-opacity="0.5"/>
<rect x="860" y="342" width="200" height="34" rx="3" fill="url(#blk)" stroke="#F2A623" stroke-width="1.5"/>
<line x1="926" y1="342" x2="926" y2="376" stroke="#F2A623" stroke-width="1" stroke-opacity="0.6"/>
<line x1="993" y1="342" x2="993" y2="376" stroke="#F2A623" stroke-width="1" stroke-opacity="0.6"/>
<rect x="893" y="296" width="134" height="34" rx="3" fill="url(#blk)" stroke="#F2A623" stroke-width="1.6"/>
<line x1="959" y1="296" x2="959" y2="330" stroke="#F2A623" stroke-width="1" stroke-opacity="0.7"/>
<rect x="926" y="252" width="67" height="34" rx="3" fill="url(#blk)" stroke="#FCDE5A" stroke-width="1.8"/>
<circle cx="959" cy="210" r="12" fill="#FCDE5A" filter="url(#sg)"/>
<circle cx="959" cy="210" r="22" fill="none" stroke="#EF9F27" stroke-width="1.4" stroke-dasharray="5 4"/>
<circle cx="959" cy="210" r="34" fill="none" stroke="#BA7517" stroke-width="0.8" stroke-dasharray="2 7"/>
<text x="120" y="192" font-family="monospace" font-size="13" fill="#BA7517" letter-spacing="4">CNGSM · 2026</text>
<text x="116" y="268" font-family="monospace" font-size="72" font-weight="bold" fill="#F2A623" filter="url(#glow)" letter-spacing="2">ETEMENANQUI</text>
<text x="120" y="316" font-family="monospace" font-size="18" fill="#7A6020" letter-spacing="2">COGNITIVE COMPRESSION PROTOCOL</text>
<line x1="120" y1="344" x2="620" y2="344" stroke="#EF9F27" stroke-width="0.6" stroke-opacity="0.4"/>
<rect x="120" y="364" width="148" height="26" rx="13" fill="#1C1608" stroke="#EF9F27" stroke-width="0.8"/>
<text x="194" y="381" font-family="monospace" font-size="13" text-anchor="middle" fill="#EF9F27">BPE ratio 0.742</text>
<rect x="280" y="364" width="148" height="26" rx="13" fill="#1C1608" stroke="#EF9F27" stroke-width="0.8"/>
<text x="354" y="381" font-family="monospace" font-size="13" text-anchor="middle" fill="#EF9F27">gz −50% bytes</text>
<rect x="440" y="364" width="148" height="26" rx="13" fill="#1C1608" stroke="#EF9F27" stroke-width="0.8"/>
<text x="514" y="381" font-family="monospace" font-size="13" text-anchor="middle" fill="#EF9F27">H_char −20%</text>
<text x="120" y="430" font-family="monospace" font-size="13" fill="#333018" letter-spacing="1">C={t,k,n,m,s,v,l,r,z,b}  ·  V={a,e,i,o}  ·  CVC+V/CV  ·  max 7 chars</text>
<text x="120" y="560" font-family="monospace" font-size="12" fill="#2A2410" letter-spacing="1">Cloves Nascimento — Arquiteto de Ecossistemas Cognitivos</text>
<line x1="0" y1="630" x2="1280" y2="630" stroke="#EF9F27" stroke-width="0.6" stroke-opacity="0.3"/>
</svg>
